<?xml version="1.0" encoding="utf-8"?>
<!-- Generator: Adobe Illustrator 22.1.0, SVG Export Plug-In . SVG Version: 6.00 Build 0)  -->
<svg version="1.1" id="Layer_1" xmlns="http://www.w3.org/2000/svg" xmlns:xlink="http://www.w3.org/1999/xlink" x="0px" y="0px"
	 viewBox="0 0 48 43.5" style="enable-background:new 0 0 48 43.5;" xml:space="preserve">
<style type="text/css">
	.st0{fill:#828C8E;}
</style>
<path id="clip" class="st0" d="M44.1,4C38.8-1.3,30.2-1.3,25,4L3.1,25.6c-4.2,4-4.4,10.6-0.4,14.8c4,4.2,10.6,4.4,14.8,0.4
	c0.1-0.1,0.2-0.2,0.4-0.4l21.9-21.6c2.9-3,2.9-7.7-0.1-10.6c-2.9-2.9-7.6-2.9-10.5,0L12.7,24.6c-0.6,0.6-0.6,1.5,0,2.1
	c0.6,0.6,1.5,0.6,2.1,0l16.4-16.4c1.7-1.8,4.5-1.9,6.4-0.2c1.8,1.7,1.9,4.5,0.2,6.4c-0.1,0.1-0.1,0.2-0.2,0.2L15.8,38.3
	c-2.9,3-7.6,3.1-10.6,0.2c-3-2.9-3.1-7.6-0.2-10.6c0.1-0.1,0.1-0.1,0.2-0.2L26.9,6.3c4.1-4.1,10.7-4.1,14.8,0
	c4.1,4.1,4.1,10.7,0,14.8l0,0L25.5,37.3c-0.6,0.6-0.6,1.5,0,2.1c0,0,0,0,0,0c0.6,0.6,1.5,0.6,2.1,0L44.1,23
	C49.3,17.8,49.3,9.2,44.1,4C44.1,4,44.1,4,44.1,4z"/>
</svg>
