<?xml version="1.0" encoding="utf-8"?>
<!-- Generator: Adobe Illustrator 22.1.0, SVG Export Plug-In . SVG Version: 6.00 Build 0)  -->
<svg version="1.1" id="Layer_1" xmlns="http://www.w3.org/2000/svg" xmlns:xlink="http://www.w3.org/1999/xlink" x="0px" y="0px"
	 viewBox="0 0 48 45" style="enable-background:new 0 0 48 45;" xml:space="preserve">
<style type="text/css">
	.st0{fill:#828C8E;}
</style>
<path id="note" class="st0" d="M47.1,9.9l-9-9C37.6,0.3,36.8,0,36,0H4.5C2,0,0,2,0,4.5v36C0,43,2,45,4.5,45h39c2.5,0,4.5-2,4.5-4.5
	V12C48,11.2,47.7,10.4,47.1,9.9z M45,40.5c0,0.8-0.7,1.5-1.5,1.5h-39C3.7,42,3,41.3,3,40.5v-36C3,3.7,3.7,3,4.5,3h30v6l0,0
	c0,2.5,2,4.5,4.5,4.5c0,0,0,0,0,0h6V40.5z M40.5,12H39c-1.7,0-3-1.3-3-3l0,0V3l9,9H40.5z M23.2,10.5h7.5c0.4,0,0.8-0.3,0.8-0.8
	S31.2,9,30.8,9h-7.5c-0.4,0-0.8,0.3-0.8,0.8S22.8,10.5,23.2,10.5z M23.2,15h7.5c0.4,0,0.8-0.3,0.8-0.8s-0.3-0.8-0.8-0.8h-7.5
	c-0.4,0-0.8,0.3-0.8,0.8S22.8,15,23.2,15z M22.5,18.8c0,0.4,0.3,0.7,0.8,0.8h18c0.4,0,0.8-0.3,0.8-0.8S41.7,18,41.2,18h-18
	C22.8,18,22.5,18.3,22.5,18.8C22.5,18.7,22.5,18.7,22.5,18.8z M41.2,27H6.8C6.3,27,6,27.3,6,27.8s0.3,0.8,0.8,0.8h34.5
	c0.4,0,0.8-0.3,0.8-0.8S41.7,27,41.2,27z M41.2,31.5H6.8c-0.4,0-0.8,0.3-0.8,0.8S6.3,33,6.8,33h34.5c0.4,0,0.8-0.3,0.8-0.8
	S41.7,31.5,41.2,31.5z M41.2,36H6.8C6.3,36,6,36.3,6,36.8s0.3,0.8,0.8,0.8h34.5c0.4,0,0.8-0.3,0.8-0.8S41.7,36,41.2,36z M41.2,22.5
	H6.8c-0.4,0-0.8,0.3-0.8,0.8S6.3,24,6.8,24h34.5c0.4,0,0.8-0.3,0.8-0.8S41.7,22.5,41.2,22.5z M7.5,19.5H18c0.8,0,1.5-0.7,1.5-1.5V9
	c0-0.8-0.7-1.5-1.5-1.5H7.5C6.7,7.5,6,8.2,6,9v9C6,18.8,6.7,19.5,7.5,19.5z M9,10.5h7.5v6H9V10.5z"/>
</svg>
