<?xml version="1.0" encoding="utf-8"?>
<!-- Generator: Adobe Illustrator 22.1.0, SVG Export Plug-In . SVG Version: 6.00 Build 0)  -->
<svg version="1.1" id="Layer_1" xmlns="http://www.w3.org/2000/svg" xmlns:xlink="http://www.w3.org/1999/xlink" x="0px" y="0px"
	 viewBox="0 0 45 48" style="enable-background:new 0 0 45 48;" xml:space="preserve">
<style type="text/css">
	.st0{fill:#828C8E;}
</style>
<path id="photo" class="st0" d="M39,0H6C2.7,0,0,2.7,0,6v36c0,3.3,2.7,6,6,6h33c3.3,0,6-2.7,6-6V6C45,2.7,42.3,0,39,0z M42,42
	c0,1.7-1.3,3-3,3H6c-1.7,0-3-1.3-3-3V6c0-1.7,1.3-3,3-3h33c1.7,0,3,1.3,3,3V42z M37.5,6h-30C6.7,6,6,6.7,6,7.5v27
	C6,35.3,6.7,36,7.5,36h30c0.8,0,1.5-0.7,1.5-1.5v-27C39,6.7,38.3,6,37.5,6z M37.5,7.5v20.8L32.6,23c-0.3-0.3-0.7-0.5-1.1-0.5
	c-0.4,0-0.8,0.2-1.1,0.5l-3.9,4.4L14.6,14c-0.3-0.3-0.7-0.5-1.1-0.5c-0.4,0-0.8,0.2-1.1,0.5l-4.9,5.6V7.5H37.5z M7.5,21.9l6-6.9
	l12.1,13.7l0.9,1l4.1,4.8H7.5V21.9z M32.6,34.5l-5.1-5.9l4-4.6l6,6.6v3.9H32.6z M28.5,19.5c2.5,0,4.5-2,4.5-4.5s-2-4.5-4.5-4.5
	S24,12.5,24,15l0,0C24,17.5,26,19.5,28.5,19.5C28.5,19.5,28.5,19.5,28.5,19.5z M28.5,12c1.7,0,3,1.3,3,3s-1.3,3-3,3s-3-1.3-3-3
	C25.5,13.3,26.8,12,28.5,12z"/>
</svg>
