<?xml version="1.0" encoding="utf-8"?>
<!-- Generator: Adobe Illustrator 22.1.0, SVG Export Plug-In . SVG Version: 6.00 Build 0)  -->
<svg version="1.1" id="Layer_1" xmlns="http://www.w3.org/2000/svg" xmlns:xlink="http://www.w3.org/1999/xlink" x="0px" y="0px"
	 viewBox="0 0 48 48" style="enable-background:new 0 0 48 48;" xml:space="preserve">
<style type="text/css">
	.st0{fill:#828C8E;}
</style>
<path id="sound" class="st0" d="M40.5,21L40.5,21c0,0.4,0.3,0.7,0.8,0.7S42,21.4,42,21l0,0v0c0-8.3-6.7-15-15-15c0,0,0,0,0,0
	c-0.4,0-0.8,0.3-0.8,0.8s0.3,0.8,0.8,0.8v0C34.5,7.5,40.5,13.6,40.5,21z M13.7,1.3c-1.8-1.8-4.6-1.8-6.4,0C6.5,2.1,6,3.3,6,4.5v20.6
	l-4.7,4.7c-1.8,1.8-1.8,4.6,0,6.3c0,0,0,0,0,0l10.5,10.5c1.8,1.8,4.6,1.8,6.4,0c0,0,0,0,0,0l4.7-4.7h20.7c2.5,0,4.5-2,4.5-4.5
	c0-1.2-0.5-2.3-1.3-3.2L13.7,1.3z M20.8,39.9l-4.7,4.7c-0.6,0.6-1.5,0.6-2.1,0L3.4,34.1c-0.6-0.6-0.6-1.5,0-2.1l4.7-4.7c0,0,0,0,0,0
	L20.8,39.9C20.8,39.9,20.8,39.9,20.8,39.9z M22.9,39c-0.2,0-0.5,0.1-0.7,0.1L8.9,25.8C8.9,25.6,9,25.4,9,25.1V7.1L41,39L22.9,39
	L22.9,39z M44.9,38.1c-0.2,0.6-0.8,0.9-1.4,0.9h-0.4L9,5V4.5c0-0.6,0.4-1.2,0.9-1.4C10.1,3,10.3,3,10.5,3c0.4,0,0.8,0.2,1.1,0.4
	l33,33C45,36.9,45.1,37.5,44.9,38.1z M27,3L27,3c9.9,0,18,8.1,18,18l0,0c0,0.8,0.7,1.5,1.5,1.5S48,21.8,48,21v0c0-11.6-9.4-21-21-21
	c0,0,0,0,0,0c-0.8,0-1.5,0.6-1.5,1.5C25.5,2.3,26.1,3,27,3C27,3,27,3,27,3z"/>
</svg>
