<?xml version="1.0" encoding="utf-8"?>
<!-- Generator: Adobe Illustrator 22.1.0, SVG Export Plug-In . SVG Version: 6.00 Build 0)  -->
<svg version="1.1" id="Layer_1" xmlns="http://www.w3.org/2000/svg" xmlns:xlink="http://www.w3.org/1999/xlink" x="0px" y="0px"
	 viewBox="0 0 48 37.5" style="enable-background:new 0 0 48 37.5;" xml:space="preserve">
<style type="text/css">
	.st0{fill:#828C8E;}
</style>
<path id="tv" class="st0" d="M33.3,6.9c-8.1-1.7-16.4-1.7-24.5,0c-0.5,0.1-1,0.5-1.1,1c-2.2,6.4-2.2,13.4,0,19.8
	c0.2,0.5,0.6,0.9,1.1,1c8.1,1.7,16.4,1.7,24.5,0c0.5-0.1,1-0.5,1.1-1c2.2-6.4,2.2-13.4,0-19.8C34.2,7.4,33.8,7,33.3,6.9z M33,27.3
	c-7.9,1.6-16,1.6-23.9,0C7,21.2,7,14.5,9,8.4c7.9-1.6,16-1.6,23.9,0C35,14.5,35,21.2,33,27.3L33,27.3z M46.3,3.5
	C46,2.3,45,1.4,43.7,1.2c-13.1-1.6-26.4-1.6-39.5,0C3,1.4,2,2.3,1.7,3.5c-2.3,9.5-2.3,19.5,0,29C2,33.7,3,34.6,4.3,34.8
	c3.2,0.4,6.3,0.7,9.5,0.9c-0.1,0.1-0.2,0.2-0.3,0.3c0,0.8,4.7,1.5,10.5,1.5s10.5-0.7,10.5-1.5c0-0.1-0.1-0.3-0.3-0.3
	c3.2-0.2,6.4-0.5,9.5-0.9c1.2-0.1,2.3-1.1,2.6-2.3C48.6,23,48.6,13,46.3,3.5L46.3,3.5z M43.4,31.8c-12.9,1.6-25.9,1.6-38.7,0
	c-2.2-9.1-2.2-18.6,0-27.6c12.9-1.6,25.9-1.6,38.7,0C45.6,13.3,45.6,22.7,43.4,31.8L43.4,31.8z M39.8,12C41,12,42,11,42,9.7
	s-1-2.2-2.3-2.2c-1.2,0-2.2,1-2.2,2.2C37.5,11,38.5,12,39.8,12L39.8,12z M39.8,9c0.4,0,0.7,0.3,0.7,0.8s-0.3,0.7-0.8,0.7
	c-0.4,0-0.7-0.3-0.7-0.8C39,9.3,39.4,9,39.8,9L39.8,9z M41.3,27h-4.5c-0.4,0-0.8,0.3-0.8,0.8s0.3,0.8,0.8,0.8h4.5
	c0.4,0,0.7-0.3,0.7-0.8S41.7,27,41.3,27L41.3,27z M42.8,22.5h-4.5c-0.4,0-0.8,0.3-0.8,0.8s0.3,0.8,0.8,0.8h4.5
	c0.4,0.1,0.8-0.2,0.8-0.7c0.1-0.4-0.2-0.8-0.7-0.8C42.9,22.5,42.8,22.5,42.8,22.5L42.8,22.5z M42.8,18h-4.5c-0.4,0-0.8,0.3-0.8,0.8
	s0.3,0.8,0.8,0.8h4.5c0.4,0,0.8-0.3,0.8-0.7C43.5,18.3,43.2,18,42.8,18L42.8,18z M20.3,11.7l-6.9,0.5c-0.4,0.1-0.8,0.4-0.9,0.8
	L12,17.2c0,0.4,0.3,0.7,0.7,0.7c0,0,0,0,0,0c0.4,0,0.8-0.3,0.8-0.8l0.2-2.8c0.1-0.4,0.4-0.8,0.8-0.8l5.6-0.4c0.4,0,0.7-0.4,0.8-0.8
	C21,12,20.7,11.7,20.3,11.7C20.3,11.7,20.3,11.7,20.3,11.7L20.3,11.7z"/>
</svg>
